<svg xmlns="http://www.w3.org/2000/svg" width="30" height="30" fill="none" viewBox="0 0 30 30"><path fill="#2E3A59" d="M15.0025 26.3013C11.9275 26.3013 11.565 26.285 10.365 26.2325C9.42922 26.2017 8.50554 26.0115 7.63375 25.67C6.12539 25.083 4.93268 23.8898 4.34625 22.3813C4.01789 21.5063 3.84077 20.5819 3.8225 19.6475C3.7525 18.45 3.7525 18.0575 3.7525 15.0063C3.7525 11.9225 3.76875 11.5625 3.8225 10.3688C3.84117 9.43566 4.01828 8.51252 4.34625 7.63876C4.93204 6.12817 6.12669 4.93397 7.6375 4.34876C8.51081 4.01901 9.43419 3.84144 10.3675 3.82376C11.5613 3.75626 11.9538 3.75626 15.0025 3.75626C18.1025 3.75626 18.4588 3.77251 19.64 3.82376C20.5757 3.84159 21.5016 4.01914 22.3775 4.34876C23.8879 4.93463 25.0823 6.1286 25.6688 7.63876C26.0027 8.52525 26.1807 9.46282 26.195 10.41C26.265 11.6075 26.265 11.9988 26.265 15.0488C26.265 18.0988 26.2475 18.4988 26.195 19.6825C26.1764 20.6178 25.9989 21.543 25.67 22.4188C25.0821 23.9284 23.8876 25.122 22.3775 25.7088C21.5028 26.0365 20.5789 26.2136 19.645 26.2325C18.4513 26.3013 18.06 26.3013 15.0025 26.3013ZM14.96 5.73501C11.9025 5.73501 11.585 5.75001 10.3913 5.80376C9.67873 5.8132 8.9731 5.94468 8.305 6.19251C7.31844 6.57002 6.53779 7.3475 6.15625 8.33251C5.90652 9.00788 5.77501 9.72123 5.7675 10.4413C5.70125 11.6525 5.70125 11.97 5.70125 15.0063C5.70125 18.0063 5.7125 18.37 5.7675 19.5738C5.77869 20.2865 5.91012 20.9923 6.15625 21.6613C6.53835 22.6456 7.31887 23.4225 8.305 23.8C8.97265 24.0495 9.67857 24.181 10.3913 24.1888C11.6013 24.2588 11.92 24.2588 14.96 24.2588C18.0263 24.2588 18.3438 24.2438 19.5275 24.1888C20.2405 24.1801 20.9467 24.0486 21.615 23.8C22.5956 23.4192 23.3712 22.6441 23.7525 21.6638C24.0018 20.9878 24.1332 20.2741 24.1413 19.5538H24.155C24.2087 18.3588 24.2088 18.04 24.2088 14.9863C24.2088 11.9325 24.195 11.6113 24.1413 10.4175C24.13 9.70557 23.9986 9.00064 23.7525 8.33251C23.372 7.35072 22.5963 6.57412 21.615 6.19251C20.9468 5.94343 20.2406 5.81191 19.5275 5.80376C18.3188 5.73501 18.0025 5.73501 14.96 5.73501ZM15.0025 20.78C12.665 20.7815 10.5568 19.3747 9.66108 17.2156C8.76539 15.0565 9.25864 12.5704 10.9108 10.9168C12.5629 9.26324 15.0486 8.76784 17.2085 9.66167C19.3683 10.5555 20.777 12.6625 20.7775 15C20.7741 18.1888 18.1913 20.7738 15.0025 20.78ZM15.0025 11.2475C12.9314 11.2475 11.2525 12.9264 11.2525 14.9975C11.2525 17.0686 12.9314 18.7475 15.0025 18.7475C17.0736 18.7475 18.7525 17.0686 18.7525 14.9975C18.7477 12.9284 17.0716 11.2523 15.0025 11.2475ZM21.0025 10.3563C20.2593 10.3535 19.6586 9.74949 19.66 9.00627C19.6614 8.26304 20.2643 7.66126 21.0075 7.66126C21.7507 7.66126 22.3536 8.26303 22.355 9.00625C22.3553 9.36483 22.2129 9.70878 21.9591 9.9621C21.7053 10.2154 21.3611 10.3573 21.0025 10.3563Z"/></svg>