<?xml version="1.0" encoding="utf-8"?>
<!-- Generator: Adobe Illustrator 25.0.1, SVG Export Plug-In . SVG Version: 6.00 Build 0)  -->
<svg version="1.1" id="Layer_1" xmlns="http://www.w3.org/2000/svg" xmlns:xlink="http://www.w3.org/1999/xlink" x="0px" y="0px"
	 viewBox="0 0 30 30" style="enable-background:new 0 0 30 30;" xml:space="preserve">
<style type="text/css">
	.st0{fill:#F2CD5D;}
</style>
<path class="st0" d="M15,26.3c-3.1,0-3.4,0-4.6-0.1c-0.9,0-1.9-0.2-2.7-0.6c-1.5-0.6-2.7-1.8-3.3-3.3c-0.3-0.9-0.5-1.8-0.5-2.7
	c-0.1-1.2-0.1-1.6-0.1-4.6c0-3.1,0-3.4,0.1-4.6c0-0.9,0.2-1.9,0.5-2.7c0.6-1.5,1.8-2.7,3.3-3.3C8.5,4,9.4,3.8,10.4,3.8
	C11.6,3.8,12,3.8,15,3.8c3.1,0,3.5,0,4.6,0.1c0.9,0,1.9,0.2,2.7,0.5c1.5,0.6,2.7,1.8,3.3,3.3c0.3,0.9,0.5,1.8,0.5,2.8
	c0.1,1.2,0.1,1.6,0.1,4.6s0,3.4-0.1,4.6c0,0.9-0.2,1.9-0.5,2.7c-0.6,1.5-1.8,2.7-3.3,3.3c-0.9,0.3-1.8,0.5-2.7,0.5
	C18.5,26.3,18.1,26.3,15,26.3z M15,5.7c-3.1,0-3.4,0-4.6,0.1C9.7,5.8,9,5.9,8.3,6.2c-1,0.4-1.8,1.2-2.1,2.1C5.9,9,5.8,9.7,5.8,10.4
	C5.7,11.7,5.7,12,5.7,15c0,3,0,3.4,0.1,4.6c0,0.7,0.1,1.4,0.4,2.1c0.4,1,1.2,1.8,2.1,2.1c0.7,0.2,1.4,0.4,2.1,0.4
	c1.2,0.1,1.5,0.1,4.6,0.1c3.1,0,3.4,0,4.6-0.1c0.7,0,1.4-0.1,2.1-0.4c1-0.4,1.8-1.2,2.1-2.1c0.2-0.7,0.4-1.4,0.4-2.1h0
	c0.1-1.2,0.1-1.5,0.1-4.6c0-3.1,0-3.4-0.1-4.6c0-0.7-0.1-1.4-0.4-2.1c-0.4-1-1.2-1.8-2.1-2.1c-0.7-0.2-1.4-0.4-2.1-0.4
	C18.3,5.7,18,5.7,15,5.7z M15,20.8c-2.3,0-4.4-1.4-5.3-3.6c-0.9-2.2-0.4-4.6,1.2-6.3c1.7-1.7,4.1-2.1,6.3-1.3c2.2,0.9,3.6,3,3.6,5.3
	C20.8,18.2,18.2,20.8,15,20.8z M15,11.2c-2.1,0-3.8,1.7-3.8,3.8s1.7,3.7,3.8,3.7s3.8-1.7,3.8-3.7C18.7,12.9,17.1,11.3,15,11.2z
	 M21,10.4c-0.7,0-1.3-0.6-1.3-1.4c0-0.7,0.6-1.3,1.3-1.3s1.3,0.6,1.3,1.3c0,0.4-0.1,0.7-0.4,1C21.7,10.2,21.4,10.4,21,10.4z"/>
</svg>
