<?xml version="1.0" encoding="utf-8"?>
<!-- Generator: Adobe Illustrator 25.0.1, SVG Export Plug-In . SVG Version: 6.00 Build 0)  -->
<svg version="1.1" id="Layer_1" xmlns="http://www.w3.org/2000/svg" xmlns:xlink="http://www.w3.org/1999/xlink" x="0px" y="0px"
	 viewBox="0 0 30 30" style="enable-background:new 0 0 30 30;" xml:space="preserve">
<style type="text/css">
	.st0{fill:#F2CD5D;}
</style>
<path class="st0" d="M16.2,26.2h-5v-15h5v2.5c1.1-1.4,2.7-2.2,4.4-2.2c3.1,0,5.6,2.5,5.6,5.6v9.1h-5v-8.4c-0.2-1.4-1.4-2.4-2.8-2.4
	c-0.6,0-1.2,0.3-1.6,0.7c-0.4,0.5-0.6,1.1-0.6,1.7V26.2z M8.8,26.2h-5v-15h5V26.2z M6.2,8.8c-1.4,0-2.5-1.1-2.5-2.5s1.1-2.5,2.5-2.5
	s2.5,1.1,2.5,2.5C8.8,6.9,8.5,7.5,8,8C7.5,8.5,6.9,8.8,6.2,8.8z"/>
</svg>
